<svg xmlns="http://www.w3.org/2000/svg" viewBox="0 0 800 520"><rect width="800" height="520" rx="28" fill="#dff3ff"/><circle cx="620" cy="95" r="48" fill="#bfe4f7"/><path d="M0 350 Q170 300 330 355 T800 330 V520H0Z" fill="#78bfe3"/><path d="M0 405 Q180 365 350 420 T800 390 V520H0Z" fill="#3d96c5"/><g fill="#173b63"><path d="M85 330V205h90v125zM105 205v-55h50v55z"/><path d="M235 345V175h110v170zM255 175v-75h70v75z"/><path d="M405 330V220h80v110zM420 220v-45h50v45z"/><path d="M535 350V190h125v160zM555 190v-65h85v65z"/></g><g stroke="#fff" stroke-width="7" stroke-linecap="round"><path d="M120 55v35M105 72h30M235 55v35M220 72h30M350 65v35M335 82h30M470 45v35M455 62h30"/></g><path d="M90 410 C180 385 230 455 315 420 S480 385 555 430 S690 450 760 410" fill="none" stroke="#b7ecff" stroke-width="12"/><g fill="#fff"><circle cx="180" cy="400" r="12"/><circle cx="420" cy="415" r="12"/><circle cx="650" cy="420" r="12"/></g><text x="40" y="470" font-family="Arial" font-size="24" fill="#fff" font-weight="700">RAINFALL + DRAINAGE → NOWCAST</text></svg>